<?xml version="1.0" encoding="us-ascii" standalone="no"?><svg xmlns="http://www.w3.org/2000/svg" xmlns:xlink="http://www.w3.org/1999/xlink" contentStyleType="text/css" height="505px" preserveAspectRatio="none" style="width:1117px;height:505px;background:#FFFFFF;" version="1.1" viewBox="0 0 1117 505" width="1117px" zoomAndPan="magnify"><defs/><g><!--cluster Case--><g id="cluster_Case"><path d="M199,98 L232,98 A3.75,3.75 0 0 1 234.5,100.5 L241.5,123.0679 L876,123.0679 A2.5,2.5 0 0 1 878.5,125.5679 L878.5,496 A2.5,2.5 0 0 1 876,498.5 L199,498.5 A2.5,2.5 0 0 1 196.5,496 L196.5,100.5 A2.5,2.5 0 0 1 199,98 " fill="none" style="stroke:#000000;stroke-width:1.5;"/><line style="stroke:#000000;stroke-width:1.5;" x1="196.5" x2="241.5" y1="123.0679" y2="123.0679"/><text fill="#000000" font-family="sans-serif" font-size="14" font-weight="bold" lengthAdjust="spacing" textLength="32" x="200.5" y="114.9659">Case</text></g><!--cluster Internal--><g id="cluster_Internal"><path d="M426,144 L482,144 A3.75,3.75 0 0 1 484.5,146.5 L491.5,169.0679 L672,169.0679 A2.5,2.5 0 0 1 674.5,171.5679 L674.5,472 A2.5,2.5 0 0 1 672,474.5 L426,474.5 A2.5,2.5 0 0 1 423.5,472 L423.5,146.5 A2.5,2.5 0 0 1 426,144 " fill="none" style="stroke:#000000;stroke-width:1.5;"/><line style="stroke:#000000;stroke-width:1.5;" x1="423.5" x2="491.5" y1="169.0679" y2="169.0679"/><text fill="#000000" font-family="sans-serif" font-size="14" font-weight="bold" lengthAdjust="spacing" textLength="55" x="427.5" y="160.9659">Internal</text></g><!--entity switch--><g id="elem_switch"><rect fill="#F1F1F1" height="49.0679" rx="2.5" ry="2.5" style="stroke:#181818;stroke-width:0.5;" width="134" x="728.5" y="299.5"/><rect fill="#F1F1F1" height="10" style="stroke:#181818;stroke-width:0.5;" width="15" x="842.5" y="304.5"/><rect fill="#F1F1F1" height="2" style="stroke:#181818;stroke-width:0.5;" width="4" x="840.5" y="306.5"/><rect fill="#F1F1F1" height="2" style="stroke:#181818;stroke-width:0.5;" width="4" x="840.5" y="310.5"/><text fill="#000000" font-family="sans-serif" font-size="14" lengthAdjust="spacing" textLength="94" x="743.5" y="334.4659">On/Off Switch</text></g><!--entity antenna--><g id="elem_antenna"><rect fill="#F1F1F1" height="49.0679" rx="2.5" ry="2.5" style="stroke:#181818;stroke-width:0.5;" width="116" x="690.5" y="409.5"/><rect fill="#F1F1F1" height="10" style="stroke:#181818;stroke-width:0.5;" width="15" x="786.5" y="414.5"/><rect fill="#F1F1F1" height="2" style="stroke:#181818;stroke-width:0.5;" width="4" x="784.5" y="416.5"/><rect fill="#F1F1F1" height="2" style="stroke:#181818;stroke-width:0.5;" width="4" x="784.5" y="420.5"/><text fill="#000000" font-family="sans-serif" font-size="14" lengthAdjust="spacing" textLength="76" x="705.5" y="444.4659">RF antenna</text></g><!--entity button--><g id="elem_button"><rect fill="#F1F1F1" height="49.0679" rx="2.5" ry="2.5" style="stroke:#181818;stroke-width:0.5;" width="158" x="249.5" y="182"/><rect fill="#F1F1F1" height="10" style="stroke:#181818;stroke-width:0.5;" width="15" x="387.5" y="187"/><rect fill="#F1F1F1" height="2" style="stroke:#181818;stroke-width:0.5;" width="4" x="385.5" y="189"/><rect fill="#F1F1F1" height="2" style="stroke:#181818;stroke-width:0.5;" width="4" x="385.5" y="193"/><text fill="#000000" font-family="sans-serif" font-size="14" lengthAdjust="spacing" textLength="118" x="264.5" y="216.9659">Recording button</text></g><!--entity led--><g id="elem_led"><rect fill="#F1F1F1" height="49.0679" rx="2.5" ry="2.5" style="stroke:#181818;stroke-width:0.5;" width="138" x="212.5" y="299.5"/><rect fill="#F1F1F1" height="10" style="stroke:#181818;stroke-width:0.5;" width="15" x="330.5" y="304.5"/><rect fill="#F1F1F1" height="2" style="stroke:#181818;stroke-width:0.5;" width="4" x="328.5" y="306.5"/><rect fill="#F1F1F1" height="2" style="stroke:#181818;stroke-width:0.5;" width="4" x="328.5" y="310.5"/><text fill="#000000" font-family="sans-serif" font-size="14" lengthAdjust="spacing" textLength="98" x="227.5" y="334.4659">Recording LED</text></g><!--entity battery--><g id="elem_battery"><rect fill="#F1F1F1" height="49.0679" rx="2.5" ry="2.5" style="stroke:#181818;stroke-width:0.5;" width="210" x="445.5" y="182"/><rect fill="#F1F1F1" height="10" style="stroke:#181818;stroke-width:0.5;" width="15" x="635.5" y="187"/><rect fill="#F1F1F1" height="2" style="stroke:#181818;stroke-width:0.5;" width="4" x="633.5" y="189"/><rect fill="#F1F1F1" height="2" style="stroke:#181818;stroke-width:0.5;" width="4" x="633.5" y="193"/><text fill="#000000" font-family="sans-serif" font-size="14" lengthAdjust="spacing" textLength="170" x="460.5" y="216.9659">600mAh 3.7V LiPo Battery</text></g><!--entity microcontroller--><g id="elem_microcontroller"><rect fill="#F1F1F1" height="49.0679" rx="2.5" ry="2.5" style="stroke:#181818;stroke-width:0.5;" width="138" x="439.5" y="299.5"/><rect fill="#F1F1F1" height="10" style="stroke:#181818;stroke-width:0.5;" width="15" x="557.5" y="304.5"/><rect fill="#F1F1F1" height="2" style="stroke:#181818;stroke-width:0.5;" width="4" x="555.5" y="306.5"/><rect fill="#F1F1F1" height="2" style="stroke:#181818;stroke-width:0.5;" width="4" x="555.5" y="310.5"/><text fill="#000000" font-family="sans-serif" font-size="14" lengthAdjust="spacing" textLength="98" x="454.5" y="334.4659">XIAO ESP32 C3</text></g><!--entity sensor--><g id="elem_sensor"><rect fill="#F1F1F1" height="49.0679" rx="2.5" ry="2.5" style="stroke:#181818;stroke-width:0.5;" width="108" x="454.5" y="409.5"/><rect fill="#F1F1F1" height="10" style="stroke:#181818;stroke-width:0.5;" width="15" x="542.5" y="414.5"/><rect fill="#F1F1F1" height="2" style="stroke:#181818;stroke-width:0.5;" width="4" x="540.5" y="416.5"/><rect fill="#F1F1F1" height="2" style="stroke:#181818;stroke-width:0.5;" width="4" x="540.5" y="420.5"/><text fill="#000000" font-family="sans-serif" font-size="14" lengthAdjust="spacing" textLength="68" x="469.5" y="444.4659">MPU-6050</text></g><g id="elem_GMN14"><path d="M894.5,411.5 L894.5,456.912 L1110.5,456.912 L1110.5,421.5 L1100.5,411.5 L894.5,411.5 " fill="#FEFFDD" style="stroke:#181818;stroke-width:0.5;"/><path d="M1100.5,411.5 L1100.5,421.5 L1110.5,421.5 L1100.5,411.5 " fill="#FEFFDD" style="stroke:#181818;stroke-width:1.0;"/><text fill="#000000" font-family="sans-serif" font-size="13" lengthAdjust="spacing" textLength="195" x="900.5" y="430.397">- Integrated LiPo charging circuit</text><text fill="#000000" font-family="sans-serif" font-size="13" lengthAdjust="spacing" textLength="158" x="900.5" y="448.103">- Integrated 3.3V regulator</text></g><!--entity Flashing/charging USB C--><g id="elem_Flashing/charging USB C"><ellipse cx="89.5" cy="206.5" fill="#F1F1F1" rx="8" ry="8" style="stroke:#181818;stroke-width:0.5;"/><text fill="#000000" font-family="sans-serif" font-size="14" lengthAdjust="spacing" textLength="167" x="6" y="238.4659">Flashing/charging USB C</text></g><g id="elem_GMN29"><path d="M235,6 L235,51.412 A0,0 0 0 0 235,51.412 L324.5,51.412 L328.5,181.78 L332.5,51.412 L422,51.412 A0,0 0 0 0 422,51.412 L422,16 L412,6 L235,6 A0,0 0 0 0 235,6 " fill="#FEFFDD" style="stroke:#181818;stroke-width:0.5;"/><path d="M412,6 L412,16 L422,16 L412,6 " fill="#FEFFDD" style="stroke:#181818;stroke-width:0.5;"/><text fill="#000000" font-family="sans-serif" font-size="13" lengthAdjust="spacing" textLength="154" x="241" y="24.897">Input pulldown + external</text><text fill="#000000" font-family="sans-serif" font-size="13" lengthAdjust="spacing" textLength="166" x="241" y="42.603">resistor for reliable readings</text></g><!--link battery to switch--><g id="link_battery_switch"><path d="M600.37,231.01 C642.63,250.93 702.92,279.36 745.28,299.32 " fill="none" id="battery-switch" style="stroke:#181818;stroke-width:1.0;"/><text fill="#000000" font-family="sans-serif" font-size="8" lengthAdjust="spacing" textLength="9" x="603.5632" y="247.604">(+)</text></g><!--link switch to microcontroller--><g id="link_switch_microcontroller"><path d="M728.3,324 C678.11,324 627.92,324 577.73,324 " fill="none" id="switch-microcontroller" style="stroke:#181818;stroke-width:1.0;"/><text fill="#000000" font-family="sans-serif" font-size="8" lengthAdjust="spacing" textLength="19" x="585.48" y="322.1005">BAT+</text></g><!--link battery to microcontroller--><g id="link_battery_microcontroller"><path d="M541.9,231.15 C534.65,251.08 524.33,279.46 517.09,299.38 " fill="none" id="battery-microcontroller" style="stroke:#181818;stroke-width:1.0;"/><text fill="#000000" font-family="sans-serif" font-size="8" lengthAdjust="spacing" textLength="7" x="531.6481" y="247.7816">(-)</text><text fill="#000000" font-family="sans-serif" font-size="8" lengthAdjust="spacing" textLength="17" x="500.1176" y="288.9875">BAT-</text></g><!--link microcontroller to GMN14--><g id="link_microcontroller_GMN14"><path d="M577.56,347.64 C578.88,347.94 580.2,348.23 581.5,348.5 C711.37,375.64 750.2,344.73 878.5,378.5 C907.61,386.16 938.61,399.79 962.33,411.5 " fill="none" id="microcontroller-GMN14" style="stroke:#181818;stroke-width:1.0;stroke-dasharray:7.0,7.0;"/></g><!--link microcontroller to sensor--><g id="link_microcontroller_sensor"><path d="M464.17,348.7 C453.26,366.71 453.28,391.36 464.21,409.35 " fill="none" id="microcontroller-sensor" style="stroke:#181818;stroke-width:1.0;"/><text fill="#000000" font-family="sans-serif" font-size="8" lengthAdjust="spacing" textLength="15" x="435.8886" y="364.9686">3V3</text><text fill="#000000" font-family="sans-serif" font-size="8" lengthAdjust="spacing" textLength="15" x="433.9967" y="399.3138">VCC</text></g><!--link microcontroller to sensor--><g id="link_microcontroller_sensor"><path d="M486.34,348.7 C480.88,366.71 480.89,391.36 486.35,409.35 " fill="none" id="microcontroller-sensor-1" style="stroke:#181818;stroke-width:1.0;"/><text fill="#000000" font-family="sans-serif" font-size="8" lengthAdjust="spacing" textLength="11" x="468.2521" y="364.9686">D3</text><text fill="#000000" font-family="sans-serif" font-size="8" lengthAdjust="spacing" textLength="13" x="464.9341" y="399.3138">INT</text></g><!--link microcontroller to sensor--><g id="link_microcontroller_sensor"><path d="M508.5,348.7 C508.5,366.71 508.5,391.36 508.5,409.35 " fill="none" id="microcontroller-sensor-2" style="stroke:#181818;stroke-width:1.0;"/><text fill="#000000" font-family="sans-serif" font-size="8" lengthAdjust="spacing" textLength="11" x="496.0906" y="364.9686">D4</text><text fill="#000000" font-family="sans-serif" font-size="8" lengthAdjust="spacing" textLength="15" x="491.2969" y="399.3138">SDA</text></g><!--link microcontroller to sensor--><g id="link_microcontroller_sensor"><path d="M530.66,348.7 C536.12,366.71 536.11,391.36 530.65,409.35 " fill="none" id="microcontroller-sensor-3" style="stroke:#181818;stroke-width:1.0;"/><text fill="#000000" font-family="sans-serif" font-size="8" lengthAdjust="spacing" textLength="11" x="523.9291" y="364.9686">D5</text><text fill="#000000" font-family="sans-serif" font-size="8" lengthAdjust="spacing" textLength="13" x="522.2472" y="399.3138">SCL</text></g><!--link microcontroller to sensor--><g id="link_microcontroller_sensor"><path d="M552.83,348.7 C563.74,366.71 563.72,391.36 552.79,409.35 " fill="none" id="microcontroller-sensor-4" style="stroke:#181818;stroke-width:1.0;"/><text fill="#000000" font-family="sans-serif" font-size="8" lengthAdjust="spacing" textLength="18" x="543.8833" y="364.9686">GND</text><text fill="#000000" font-family="sans-serif" font-size="8" lengthAdjust="spacing" textLength="18" x="545.1564" y="399.3138">GND</text></g><!--link Flashing/charging USB C to microcontroller--><g id="link_Flashing/charging USB C_microcontroller"><path d="M98.62,214.51 C116.36,227.75 157.23,256.27 196.5,269.5 C297.95,303.69 330.98,276.33 435.5,299.5 C436.8,299.79 432.2689,298.7182 433.5889,299.0282 " fill="none" id="Flashing/charging USB C-to-microcontroller" style="stroke:#181818;stroke-width:1.0;"/><polygon fill="#181818" points="439.43,300.4,431.5829,294.4483,434.5624,299.2569,429.7539,302.2364,439.43,300.4" style="stroke:#181818;stroke-width:1.0;"/></g><!--link button to microcontroller--><g id="link_button_microcontroller"><path d="M354.84,231.15 C382.93,251.08 427.15,279.46 461.17,299.38 " fill="none" id="button-microcontroller" style="stroke:#181818;stroke-width:1.0;"/><text fill="#000000" font-family="sans-serif" font-size="8" lengthAdjust="spacing" textLength="9" x="351.7095" y="247.7816">(+)</text><text fill="#000000" font-family="sans-serif" font-size="8" lengthAdjust="spacing" textLength="15" x="429.3783" y="288.9875">3V3</text></g><!--link button to microcontroller--><g id="link_button_microcontroller"><path d="M376.5,231.15 C410.71,251.08 454.93,279.46 482.83,299.38 " fill="none" id="button-microcontroller-1" style="stroke:#181818;stroke-width:1.0;"/><text fill="#000000" font-family="sans-serif" font-size="8" lengthAdjust="spacing" textLength="7" x="381.4594" y="247.7816">(-)</text><text fill="#000000" font-family="sans-serif" font-size="8" lengthAdjust="spacing" textLength="11" x="462.2842" y="288.9875">D1</text></g><!--link microcontroller to microcontroller--><g id="link_microcontroller_microcontroller"><path d="M577.51,313.91 C597.27,314.31 612.5,317.67 612.5,324 C612.5,330.33 597.27,333.69 577.51,334.09 " fill="none" id="microcontroller-microcontroller" style="stroke:#181818;stroke-width:1.0;"/><text fill="#000000" font-family="sans-serif" font-size="8" lengthAdjust="spacing" textLength="51" x="618.5" y="327.5519">10k&#937; resistor</text><text fill="#000000" font-family="sans-serif" font-size="8" lengthAdjust="spacing" textLength="11" x="585.6595" y="310.8567">D1</text><text fill="#000000" font-family="sans-serif" font-size="8" lengthAdjust="spacing" textLength="18" x="585.5548" y="333.2095">GND</text></g><!--link led to microcontroller--><g id="link_led_microcontroller"><path d="M350.53,324 C378.71,324 411.22,324 439.41,324 " fill="none" id="led-microcontroller" style="stroke:#181818;stroke-width:1.0;"/><text fill="#000000" font-family="sans-serif" font-size="8" lengthAdjust="spacing" textLength="52" x="369" y="318.5519">220&#937; resistor</text><text fill="#000000" font-family="sans-serif" font-size="8" lengthAdjust="spacing" textLength="9" x="358.5723" y="322.0503">(+)</text><text fill="#000000" font-family="sans-serif" font-size="8" lengthAdjust="spacing" textLength="11" x="420.7179" y="322.079">D2</text></g><!--link led to microcontroller--><g id="link_led_microcontroller"><path d="M350.76,326.6 C369.9,327.05 390.67,327.29 409.83,327 C419.34,326.86 429.37,326.63 439.24,326.37 " fill="none" id="led-microcontroller-1" style="stroke:#181818;stroke-width:1.0;"/><text fill="#000000" font-family="sans-serif" font-size="8" lengthAdjust="spacing" textLength="7" x="358.7181" y="336.0284">(-)</text><text fill="#000000" font-family="sans-serif" font-size="8" lengthAdjust="spacing" textLength="18" x="413.5363" y="335.6881">GND</text></g><!--link button to led--><!--link microcontroller to antenna--><g id="link_microcontroller_antenna"><path d="M560.87,348.57 C601.01,366.63 656.13,391.43 696.24,409.48 " fill="none" id="microcontroller-antenna" style="stroke:#181818;stroke-width:1.0;"/><text fill="#000000" font-family="sans-serif" font-size="8" lengthAdjust="spacing" textLength="16" x="577.0944" y="365.1801">U.FL</text></g><!--SRC=[VPJVRjem5CRlynH7kM5J5Hh8sasxc0G19YGeQ2beKjKBavZ4mh6HxOpz4G-qbzappOuJQ4bA9D1HyZlnv-zyJWUY756A1I0X-04esc0gGN4GE2bY336db4Z2cNJaZh0z4YY7WM4ddAc8_CRm2HndZ-8TIZ6u8PBOXJyEwEjqSyeK5WpH-e6vOfxlESDCmTEzx-U338BknpNCo9B342dTyEiPa8IDhTlwlay72nX7ow0FOL32EOa5ZxKmmSscsfhcovLtxz_v9IynaznYn_A_SnOT5MABOlo6vWMxNMot41s8YZFxhhA4DlZR192sW35KabNTIkAOYuIm53Q5KfnP2yhoEZuRZqgMugJQoD4vEau7bloWZQXS1FVTpNiNFAzIwrIYzGrtE7YySHiEdXizssWuhyavZ2iC6wwLvi2tBPFmmCGW5KZXn8uvpf18ZVYOYBWWwX8Aki5Qvp0jA59wIfWbO5Onkvg_VZtSm7I-SYuM1JTO1rRqEWpTUjeDQbH1quV7Az072qMZmHNeheB2sTlGruUHfSgYejm9HJBJPjoUN5b5GmWD-QNfjdQ0_y2v2O6eC-3OdDWPUuAacV8g2nfJhSbog3KwwZN9vXPxByHVFFqCFN_txw-M98aq8zDfh2DtMgJVqjRl-yssLzhQbgj2f_ZU9Ex5APcoVQ5WNr2Qy0FJuS0_xGV8divw7TZgdy2Ke0t5ka36HNdEMUMIzvIH9C7isIjFb_P-E1j3qvbLTp8hlQdFzty0]--></g></svg>