<?xml version="1.0" encoding="us-ascii" standalone="no"?><svg xmlns="http://www.w3.org/2000/svg" xmlns:xlink="http://www.w3.org/1999/xlink" contentStyleType="text/css" height="498px" preserveAspectRatio="none" style="width:899px;height:498px;background:#FFFFFF;" version="1.1" viewBox="0 0 899 498" width="899px" zoomAndPan="magnify"><defs/><g><!--entity battery--><g id="elem_battery"><rect fill="#F1F1F1" height="49.0679" rx="2.5" ry="2.5" style="stroke:#181818;stroke-width:0.5;" width="210" x="234.5" y="334"/><rect fill="#F1F1F1" height="10" style="stroke:#181818;stroke-width:0.5;" width="15" x="424.5" y="339"/><rect fill="#F1F1F1" height="2" style="stroke:#181818;stroke-width:0.5;" width="4" x="422.5" y="341"/><rect fill="#F1F1F1" height="2" style="stroke:#181818;stroke-width:0.5;" width="4" x="422.5" y="345"/><text fill="#000000" font-family="sans-serif" font-size="14" lengthAdjust="spacing" textLength="170" x="249.5" y="368.9659">600mAh 3.7V LiPo Battery</text></g><!--entity charger--><g id="elem_charger"><rect fill="#F1F1F1" height="49.0679" rx="2.5" ry="2.5" style="stroke:#181818;stroke-width:0.5;" width="93" x="312" y="225"/><rect fill="#F1F1F1" height="10" style="stroke:#181818;stroke-width:0.5;" width="15" x="385" y="230"/><rect fill="#F1F1F1" height="2" style="stroke:#181818;stroke-width:0.5;" width="4" x="383" y="232"/><rect fill="#F1F1F1" height="2" style="stroke:#181818;stroke-width:0.5;" width="4" x="383" y="236"/><text fill="#000000" font-family="sans-serif" font-size="14" lengthAdjust="spacing" textLength="53" x="327" y="259.9659">TP-4056</text></g><!--entity voltageRegulator--><g id="elem_voltageRegulator"><rect fill="#F1F1F1" height="49.0679" rx="2.5" ry="2.5" style="stroke:#181818;stroke-width:0.5;" width="98" x="479.5" y="334"/><rect fill="#F1F1F1" height="10" style="stroke:#181818;stroke-width:0.5;" width="15" x="557.5" y="339"/><rect fill="#F1F1F1" height="2" style="stroke:#181818;stroke-width:0.5;" width="4" x="555.5" y="341"/><rect fill="#F1F1F1" height="2" style="stroke:#181818;stroke-width:0.5;" width="4" x="555.5" y="345"/><text fill="#000000" font-family="sans-serif" font-size="14" lengthAdjust="spacing" textLength="58" x="494.5" y="368.9659">MT-3608</text></g><!--entity switch--><g id="elem_switch"><rect fill="#F1F1F1" height="49.0679" rx="2.5" ry="2.5" style="stroke:#181818;stroke-width:0.5;" width="134" x="288.5" y="443"/><rect fill="#F1F1F1" height="10" style="stroke:#181818;stroke-width:0.5;" width="15" x="402.5" y="448"/><rect fill="#F1F1F1" height="2" style="stroke:#181818;stroke-width:0.5;" width="4" x="400.5" y="450"/><rect fill="#F1F1F1" height="2" style="stroke:#181818;stroke-width:0.5;" width="4" x="400.5" y="454"/><text fill="#000000" font-family="sans-serif" font-size="14" lengthAdjust="spacing" textLength="94" x="303.5" y="477.9659">On/Off Switch</text></g><!--entity microcontroller--><g id="elem_microcontroller"><rect fill="#F1F1F1" height="49.0679" rx="2.5" ry="2.5" style="stroke:#181818;stroke-width:0.5;" width="179" x="92" y="116"/><rect fill="#F1F1F1" height="10" style="stroke:#181818;stroke-width:0.5;" width="15" x="251" y="121"/><rect fill="#F1F1F1" height="2" style="stroke:#181818;stroke-width:0.5;" width="4" x="249" y="123"/><rect fill="#F1F1F1" height="2" style="stroke:#181818;stroke-width:0.5;" width="4" x="249" y="127"/><text fill="#000000" font-family="sans-serif" font-size="14" lengthAdjust="spacing" textLength="139" x="107" y="150.9659">ESP32 C3 Super Mini</text></g><!--entity sensor--><g id="elem_sensor"><rect fill="#F1F1F1" height="49.0679" rx="2.5" ry="2.5" style="stroke:#181818;stroke-width:0.5;" width="108" x="127.5" y="7"/><rect fill="#F1F1F1" height="10" style="stroke:#181818;stroke-width:0.5;" width="15" x="215.5" y="12"/><rect fill="#F1F1F1" height="2" style="stroke:#181818;stroke-width:0.5;" width="4" x="213.5" y="14"/><rect fill="#F1F1F1" height="2" style="stroke:#181818;stroke-width:0.5;" width="4" x="213.5" y="18"/><text fill="#000000" font-family="sans-serif" font-size="14" lengthAdjust="spacing" textLength="68" x="142.5" y="41.9659">MPU-6050</text></g><g id="elem_GMN20"><path d="M6,445 L6,490.412 A0,0 0 0 0 6,490.412 L253,490.412 A0,0 0 0 0 253,490.412 L253,471.5 L288.3,467.5 L253,463.5 L253,455 L243,445 L6,445 A0,0 0 0 0 6,445 " fill="#FEFFDD" style="stroke:#181818;stroke-width:0.5;"/><path d="M243,445 L243,455 L253,455 L243,445 " fill="#FEFFDD" style="stroke:#181818;stroke-width:0.5;"/><text fill="#000000" font-family="sans-serif" font-size="13" lengthAdjust="spacing" textLength="223" x="12" y="463.897">Turn off when plugging USB to ESP32</text><text fill="#000000" font-family="sans-serif" font-size="13" lengthAdjust="spacing" textLength="178" x="15" y="481.603">(prevent backfeed to battery).</text></g><g id="elem_GMN23"><path d="M613,344.5 L613,354.5 L577.94,358.5 L613,362.5 L613,372.206 A0,0 0 0 0 613,372.206 L892,372.206 A0,0 0 0 0 892,372.206 L892,354.5 L882,344.5 L613,344.5 A0,0 0 0 0 613,344.5 " fill="#FEFFDD" style="stroke:#181818;stroke-width:0.5;"/><path d="M882,344.5 L882,354.5 L892,354.5 L882,344.5 " fill="#FEFFDD" style="stroke:#181818;stroke-width:0.5;"/><text fill="#000000" font-family="sans-serif" font-size="13" lengthAdjust="spacing" textLength="258" x="619" y="363.397">Adjust manually to step-up from 3.7V to 5V.</text></g><!--entity Charging USB C--><g id="elem_Charging USB C"><ellipse cx="267.5" cy="249.5" fill="#F1F1F1" rx="8" ry="8" style="stroke:#181818;stroke-width:0.5;"/><text fill="#000000" font-family="sans-serif" font-size="14" lengthAdjust="spacing" textLength="107" x="214" y="281.4659">Charging USB C</text></g><!--entity Flashing/Serial USB C--><g id="elem_Flashing/Serial USB C"><ellipse cx="315.5" cy="140.5" fill="#F1F1F1" rx="8" ry="8" style="stroke:#181818;stroke-width:0.5;"/><text fill="#000000" font-family="sans-serif" font-size="14" lengthAdjust="spacing" textLength="144" x="243.5" y="172.4659">Flashing/Serial USB C</text></g><!--link battery to charger--><g id="link_battery_charger"><path d="M355.13,333.82 C361.04,316.1 365.1847,297.9785 365.5847,280.2485 " fill="none" id="battery-to-charger" style="stroke:#181818;stroke-width:1.0;"/><polygon fill="#181818" points="365.72,274.25,361.518,283.1575,365.6072,279.2487,369.516,283.3379,365.72,274.25" style="stroke:#181818;stroke-width:1.0;"/><text fill="#000000" font-family="sans-serif" font-size="8" lengthAdjust="spacing" textLength="9" x="349.3994" y="323.775">(+)</text><text fill="#000000" font-family="sans-serif" font-size="8" lengthAdjust="spacing" textLength="10" x="356.2889" y="290.5314">B+</text></g><!--link charger to battery--><g id="link_charger_battery"><path d="M343.48,274.25 C337.73,291.98 333.6328,310.1028 333.0928,327.8228 " fill="none" id="charger-to-battery" style="stroke:#181818;stroke-width:1.0;"/><polygon fill="#181818" points="332.91,333.82,337.1823,324.946,333.0623,328.8223,329.186,324.7023,332.91,333.82" style="stroke:#181818;stroke-width:1.0;"/><text fill="#000000" font-family="sans-serif" font-size="8" lengthAdjust="spacing" textLength="8" x="330.6061" y="290.5314">B-</text><text fill="#000000" font-family="sans-serif" font-size="8" lengthAdjust="spacing" textLength="7" x="322.9461" y="323.775">(-)</text></g><!--link charger to voltageRegulator--><g id="link_charger_voltageRegulator"><path d="M385.42,274.25 C411,291.98 444.1314,313.1043 474.8814,330.8243 " fill="none" id="charger-to-voltageRegulator" style="stroke:#181818;stroke-width:1.0;"/><polygon fill="#181818" points="480.08,333.82,474.2793,325.8606,475.7478,331.3235,470.2849,332.7921,480.08,333.82" style="stroke:#181818;stroke-width:1.0;"/><text fill="#000000" font-family="sans-serif" font-size="8" lengthAdjust="spacing" textLength="21" x="368.6276" y="290.5314">OUT+</text><text fill="#000000" font-family="sans-serif" font-size="8" lengthAdjust="spacing" textLength="19" x="452.573" y="328.0734">VIN+</text></g><!--link voltageRegulator to charger--><g id="link_voltageRegulator_charger"><path d="M502.55,333.99 C476.53,315.82 441.9728,293.7909 410.5828,275.9009 " fill="none" id="voltageRegulator-to-charger" style="stroke:#181818;stroke-width:1.0;"/><polygon fill="#181818" points="405.37,272.93,411.2086,280.8616,409.714,275.4058,415.1699,273.9112,405.37,272.93" style="stroke:#181818;stroke-width:1.0;"/><text fill="#000000" font-family="sans-serif" font-size="8" lengthAdjust="spacing" textLength="17" x="474.9997" y="323.6312">VIN-</text><text fill="#000000" font-family="sans-serif" font-size="8" lengthAdjust="spacing" textLength="19" x="412.9447" y="274.014">OUT-</text></g><!--link voltageRegulator to switch--><g id="link_voltageRegulator_switch"><path d="M490.11,383.25 C461.44,400.98 427.5324,421.9431 398.8924,439.6631 " fill="none" id="voltageRegulator-to-switch" style="stroke:#181818;stroke-width:1.0;"/><polygon fill="#181818" points="393.79,442.82,403.5481,441.4862,398.042,440.1892,399.3389,434.6831,393.79,442.82" style="stroke:#181818;stroke-width:1.0;"/><text fill="#000000" font-family="sans-serif" font-size="8" lengthAdjust="spacing" textLength="26" x="450.9413" y="399.5314">VOUT+</text></g><!--link switch to microcontroller--><g id="link_switch_microcontroller"><path d="M292.62,442.98 C265.26,429.55 235.42,409.92 217.5,383 C171.93,314.54 174.2257,217.1271 178.2657,171.0671 " fill="none" id="switch-to-microcontroller" style="stroke:#181818;stroke-width:1.0;"/><polygon fill="#181818" points="178.79,165.09,174.0189,173.7061,178.3531,170.0709,181.9883,174.4051,178.79,165.09" style="stroke:#181818;stroke-width:1.0;"/><text fill="#000000" font-family="sans-serif" font-size="8" lengthAdjust="spacing" textLength="10" x="166.7179" y="181.7055">5V</text></g><!--reverse link sensor to microcontroller--><g id="link_sensor_microcontroller"><path d="M157.5267,61.9942 C152.1767,79.7242 153.91,98.1 159.28,115.82 " fill="none" id="sensor-backto-microcontroller" style="stroke:#181818;stroke-width:1.0;"/><polygon fill="#181818" points="159.26,56.25,152.8306,63.7107,157.8156,61.0368,160.4895,66.0218,159.26,56.25" style="stroke:#181818;stroke-width:1.0;"/><text fill="#000000" font-family="sans-serif" font-size="8" lengthAdjust="spacing" textLength="15" x="136.6391" y="72.5314">VCC</text><text fill="#000000" font-family="sans-serif" font-size="8" lengthAdjust="spacing" textLength="15" x="135.5498" y="105.775">3V3</text></g><!--link microcontroller to sensor--><g id="link_microcontroller_sensor"><path d="M181.5,115.82 C181.5,98.1 181.5,79.98 181.5,62.25 " fill="none" id="microcontroller-to-sensor" style="stroke:#181818;stroke-width:1.0;"/><polygon fill="#181818" points="181.5,56.25,177.5,65.25,181.5,61.25,185.5,65.25,181.5,56.25" style="stroke:#181818;stroke-width:1.0;"/><text fill="#000000" font-family="sans-serif" font-size="8" lengthAdjust="spacing" textLength="11" x="168.8844" y="105.775">D4</text><text fill="#000000" font-family="sans-serif" font-size="8" lengthAdjust="spacing" textLength="15" x="164.5781" y="72.5314">SDA</text></g><!--link microcontroller to sensor--><g id="link_microcontroller_sensor"><path d="M203.72,115.82 C209.09,98.1 210.8233,79.7242 205.4733,61.9942 " fill="none" id="microcontroller-to-sensor-1" style="stroke:#181818;stroke-width:1.0;"/><polygon fill="#181818" points="203.74,56.25,202.5105,66.0218,205.1844,61.0368,210.1694,63.7107,203.74,56.25" style="stroke:#181818;stroke-width:1.0;"/><text fill="#000000" font-family="sans-serif" font-size="8" lengthAdjust="spacing" textLength="11" x="197.6315" y="105.775">D5</text><text fill="#000000" font-family="sans-serif" font-size="8" lengthAdjust="spacing" textLength="13" x="194.7734" y="72.5314">SCL</text></g><!--link microcontroller to charger--><g id="link_microcontroller_charger"><path d="M220.78,165.25 C250.11,182.98 284.8854,203.9958 314.1954,221.7158 " fill="none" id="microcontroller-to-charger" style="stroke:#181818;stroke-width:1.0;"/><polygon fill="#181818" points="319.33,224.82,313.6976,216.7406,315.0512,222.2332,309.5587,223.5867,319.33,224.82" style="stroke:#181818;stroke-width:1.0;"/><text fill="#000000" font-family="sans-serif" font-size="8" lengthAdjust="spacing" textLength="18" x="210.5393" y="181.5314">GND</text><text fill="#000000" font-family="sans-serif" font-size="8" lengthAdjust="spacing" textLength="19" x="286.0332" y="214.775">OUT-</text></g><!--link sensor to charger--><g id="link_sensor_charger"><path d="M235.63,46.21 C271.91,58.35 317.47,79.9 342.5,116 C365.01,148.47 365.2096,190.4881 362.4496,218.9281 " fill="none" id="sensor-to-charger" style="stroke:#181818;stroke-width:1.0;"/><polygon fill="#181818" points="361.87,224.9,366.7206,216.3285,362.353,219.9234,358.758,215.5557,361.87,224.9" style="stroke:#181818;stroke-width:1.0;"/><text fill="#000000" font-family="sans-serif" font-size="8" lengthAdjust="spacing" textLength="18" x="243.324" y="45.9957">GND</text><text fill="#000000" font-family="sans-serif" font-size="8" lengthAdjust="spacing" textLength="19" x="340.9927" y="214.5137">OUT-</text></g><!--link Charging USB C to charger--><g id="link_Charging USB C_charger"><path d="M276.74,249.5 C288.45,249.5 294.16,249.5 305.87,249.5 " fill="none" id="Charging USB C-to-charger" style="stroke:#181818;stroke-width:1.0;"/><polygon fill="#181818" points="311.87,249.5,302.87,245.5,306.87,249.5,302.87,253.5,311.87,249.5" style="stroke:#181818;stroke-width:1.0;"/></g><!--link Flashing/Serial USB C to microcontroller--><g id="link_Flashing/Serial USB C_microcontroller"><path d="M306.46,140.5 C294.64,140.5 288.83,140.5 277.01,140.5 " fill="none" id="Flashing/Serial USB C-to-microcontroller" style="stroke:#181818;stroke-width:1.0;"/><polygon fill="#181818" points="271.01,140.5,280.01,144.5,276.01,140.5,280.01,136.5,271.01,140.5" style="stroke:#181818;stroke-width:1.0;"/></g><!--SRC=[VLF9Rjim4BthAmQyn4OWHwXYDyYXW9UcC10lg6nTsXvecPBOKAH0KZ7Sh-zGI-8bxKKOpJpElFSul86ee48m3LHhTG11TqmOi0eqsrS9WqG9mGrNqdZcXSkIQbh0s66VbBGH_yFW0JmlKKMf99CMVeo2e1Zd40u-n_3Crmecr5gcZx-06jWryIb-i_RlW-6eBYSvrHdJf-N5nWz7mKDTVbN2qenzPrabg5Ldk9MyMwKfH0Tkaxn6cpg4Kz3NQ1r-Wca8KLMYvWMNl8OMFD4gGK5QEJFEvg-t_YWO1arB9WsEzMvWhGxO08z8bjZQdbOQaDvjdu3lVm4okIMT9AJH1cJYj-MUZy0tHxhoQhkvRG7nV8dXfMhmhZ8aVZ_LoFPQzNMVOKok9AA6-M8BXcUIYZCX5qWWOHnYQy5IMvEQJabdn1LqTjzIZsRZ_w267MhwJ4vCZIpLa6bLoJsN6VIMAzXJRexEHBmgJBqlfbJSiFv7LioNdS5eYlzs0zSqlYrd7m8RGl-k8zEbiinu4h_WV06Ljhu_mgRI4lzJEEHCGYcgB7FCjz74iMysyAU4NgdPgzkm7KrUKiRshjekGt_GjDOyo-lUboeVORp_NHaB1PKLlj-ZEsmiA_sgX5Ihedb-c1p60ySNfnkFJ9s0ZWpUebyFG86TCl8agCaHSHSnpN4lBe6NM_GN]--></g></svg>